<svg xmlns="http://www.w3.org/2000/svg" width="256" height="256"><path fill-opacity=".016" d="M0 128.004v128.004l128.25-.254 128.25-.254.254-127.75L257.008 0H0v128.004m.485.496c0 70.4.119 99.053.265 63.672.146-35.38.146-92.98 0-128C.604 29.153.485 58.1.485 128.5" fill="#1976D2" fill-rule="evenodd"/><path fill-opacity=".103" d="M106.922 1.552C54.84 10.983 13.718 52.798 4.491 105.71c-1.923 11.027-1.923 33.553 0 44.58 4.558 26.138 17.256 50.563 35.98 69.21 43.017 42.841 108.058 48.734 158.236 14.337 16.61-11.386 34.196-32.402 42.665-50.986C249.527 164.955 253 148.574 253 128c0-27.662-6.623-49.72-21.76-72.47-18.925-28.444-49.172-48.148-82.95-54.039-10.498-1.83-31.091-1.8-41.368.061m37.578 8.461c-39.015 5.967-70.406 17.449-98.051 35.865C29.423 57.22 24.653 61.74 20.077 70.871c-2.911 5.807-9.063 21.01-9.079 22.439-.001.104 4.611-4.319 10.25-9.83 25.197-24.628 74.646-49.509 121.04-60.905 11.552-2.837 28.537-5.501 35.712-5.601l4.5-.062-3.956-2.086c-5.233-2.759-17.357-6.849-19.969-6.737-1.141.048-7.475.914-14.075 1.924M193 51.041c-29.558 2.65-61.961 12.292-93.725 27.887-26.862 13.189-45.523 25.619-61.655 41.068l-8.88 8.504.635 12c1.554 29.339 8.918 57.049 20.464 77 6.092 10.526 10.813 15.026 21.677 20.658 19.136 9.922 35.373 13.864 56.865 13.807 19.185-.051 27.207-1.736 35.998-7.562 20.827-13.803 40.09-33.88 53.661-55.929 11.419-18.554 22.826-47.048 27.956-69.837 1.973-8.766 2.086-10.546 1.014-16-2.938-14.962-10.51-33.112-19.079-45.736l-3.801-5.6-6.815-.643c-7.89-.745-12.551-.672-24.315.383m34.71 66.332l-11.79 6.181-3.993 11.973c-5.273 15.809-17.778 41.065-27.716 55.973-17.052 25.579-34.383 42.954-53.996 54.131L122.548 250h5.566c33.713 0 74.857-37.97 99.027-91.388C234.133 143.159 241 120.256 241 112.39c0-1.958-.178-1.891-13.29 4.983m-34.475 11.926l-10.264 3.096-1.04 4.053c-6.1 23.773-23.028 55.499-41.282 77.368-7.895 9.458-22.84 23.959-28.669 27.815-5.087 3.367-3.742 4.127 4.266 2.41 25.071-5.377 54.457-35.623 74.364-76.541 6.55-13.463 15.39-36.503 15.39-40.111 0-1.83-.724-1.721-12.765 1.91" fill="#1976D2" fill-rule="evenodd"/><path fill-opacity=".471" d="M112.176 1.003C47.341 10.152.104 67.793 3.276 133.888c1.553 32.361 13.706 60.679 35.912 83.681C57.177 236.202 78.1 247.845 104 253.636c10.77 2.408 36.669 2.411 47.796.006 24.395-5.272 44.07-15.739 61.849-32.904 51.106-49.339 52.617-131.209 3.362-182.124-18.062-18.67-38.26-30.12-63.007-35.716-9.836-2.224-32.286-3.241-41.824-1.895m26.801 9.498C94.471 18.232 61.696 32.239 31.149 56.586c-6.177 4.924-7.954 7.06-11.134 13.386-2.081 4.141-5.172 11.461-6.868 16.267l-3.083 8.74 8.718-8.856c14.033-14.256 32.377-26.705 57.036-38.708 34.403-16.747 69.572-27.284 100.11-29.994 6.927-.615 7.265-.751 5-2.015-1.335-.745-5.901-2.716-10.146-4.38-9.365-3.672-13.312-3.737-31.805-.525M191.5 50.67c-33.644 4.158-63.261 13.204-94.79 28.953-24.262 12.119-46.041 26.886-60.59 41.082l-7.99 7.795.476 7c2.258 33.247 7.529 55.89 17.726 76.144 6.748 13.403 11.002 18.548 19.674 23.794 24.091 14.575 51.927 20.198 79.45 16.05 11.667-1.759 14.826-3.229 27.544-12.822 23.669-17.853 42.152-40.978 56.083-70.166 7.266-15.224 11.165-26.219 15.88-44.776 4.268-16.797 4.234-17.796-1.172-34.724-4.83-15.125-15.895-35.38-20.746-37.976-1.777-.951-24.637-1.207-31.545-.354m42.5 63.905c-3.025 1.878-8.222 4.603-11.548 6.055l-6.048 2.639-4.418 13.115c-5.227 15.52-16.762 38.983-26.363 53.627-17.328 26.43-37.605 46.706-56.623 56.621-5.063 2.64-5.282 2.893-2.759 3.184 1.508.173 6.458-.384 11-1.239 30.862-5.809 64.328-38.253 86.725-84.077 7.118-14.564 12.362-29.391 15.036-42.509 1.099-5.393 1.998-10.072 1.998-10.398 0-1.083-1.449-.466-7 2.982m-40 14.897c-8.794 2.732-10.617 3.65-11.219 5.645-8.877 29.424-21.065 52.808-39.812 76.383-7.833 9.851-20.544 22.648-28.246 28.438-3.177 2.388-5.605 4.514-5.395 4.723.829.829 11.517-2.059 17.359-4.691 28.837-12.993 58.643-52.379 74.605-98.585 4.058-11.748 5.015-15.422 3.977-15.28-.423.058-5.494 1.573-11.269 3.367" fill="#1976D2" fill-rule="evenodd"/><path fill-opacity=".278" d="M116 1.072C67.29 5.976 25.925 39.503 9.983 87c-8.408 25.051-8.418 56.683-.027 82 5.497 16.584 17.01 35.68 29.434 48.818 6.3 6.662 21.061 17.897 29.61 22.537 52.199 28.33 117.762 15.275 154.856-30.837 31.527-39.19 37.631-94.278 15.405-139.018-12.018-24.189-33.171-45.53-56.761-57.265C163.031 3.549 137.594-1.103 116 1.072m29.5 7.927c-29.366 4.459-52.257 11.315-75 22.464-24.417 11.968-44.488 26.531-49.722 36.074-3.255 5.935-9.271 20.714-10.209 25.081-.596 2.775.519 1.946 10.131-7.526C36.545 69.475 56.73 56.36 84.01 43.958c31.971-14.534 66.091-24.23 90.888-25.826l10.602-.682-5-2.601c-6.138-3.193-19.011-7.881-21.31-7.76-.929.048-7.09.908-13.69 1.91m51 41.12c-38.556 2.172-87.959 19.441-126.974 44.385-14.902 9.528-22.064 15.075-32.898 25.477l-8.871 8.519.675 11c2.154 35.127 11.07 65.282 25.184 85.179 4.978 7.017 13.529 12.936 27.321 18.913 14.038 6.084 25.519 8.544 42.563 9.122 20.015.679 31.59-1.198 39.5-6.405 41.375-27.239 70.277-70.965 83.453-126.259 2.486-10.43 2.623-11.987 1.543-17.476-1.69-8.59-6.642-22.909-10.734-31.042-4.209-8.364-12.127-20.571-13.661-21.061-2.367-.755-16.636-.941-27.101-.352m31.53 68.109l-11.47 5.874-3.594 10.699c-16.053 47.787-49.765 93.373-82.333 111.332l-5.133 2.831 4.5.003c35.347.026 81.586-47.546 102.51-105.467 3.544-9.811 7.889-27.403 7.336-29.705-.259-1.081-3.216.028-11.816 4.433m-35.085 11.977l-9.555 3.002-1.832 7.11c-8.554 33.207-37.028 75.892-67.058 100.527l-4 3.282 4-.641c11.391-1.824 23.76-9.042 36.814-21.485 17.971-17.13 32.46-38.88 43.989-66.031 4.137-9.742 9.697-25.809 9.697-28.021 0-1.358-1.36-1.103-12.055 2.257" fill="#1976D2" fill-rule="evenodd"/></svg>